<?xml version="1.0" encoding="UTF-8" standalone="no"?>
<!DOCTYPE svg PUBLIC "-//W3C//DTD SVG 1.1//EN" "http://www.w3.org/Graphics/SVG/1.1/DTD/svg11.dtd">
<svg version="1.1" xmlns="http://www.w3.org/2000/svg" xmlns:xlink="http://www.w3.org/1999/xlink" preserveAspectRatio="xMidYMid meet" viewBox="0 0 642.142 610.772" width="642.14" height="610.77"><defs><path d="M322.17 2.82L322.31 2.82L322.42 2.82L322.57 2.82L335.73 3.1L348.75 3.88L361.62 5.15L374.34 6.9L386.88 9.12L399.25 11.79L411.43 14.92L423.42 18.48L435.19 22.47L446.75 26.88L458.08 31.7L469.16 36.93L480 42.54L490.58 48.53L500.89 54.89L510.92 61.62L520.66 68.69L530.09 76.11L539.22 83.86L548.03 91.93L556.5 100.31L564.63 109L572.41 117.98L579.83 127.24L586.88 136.78L593.54 146.57L599.81 156.63L605.68 166.92L611.13 177.45L616.17 188.21L620.76 199.18L624.92 210.35L628.61 221.72L631.85 233.28L634.61 245.01L636.88 256.91L638.66 268.96L639.94 281.16L640.69 293.5L640.93 305.96L640.63 318.41L639.8 330.73L638.47 342.9L636.62 354.93L634.29 366.8L631.47 378.51L628.18 390.03L624.43 401.37L620.23 412.52L615.58 423.45L610.51 434.17L605.01 444.66L599.1 454.92L592.79 464.94L586.08 474.7L579 484.19L571.55 493.41L563.74 502.34L555.58 510.99L547.07 519.33L538.24 527.35L529.09 535.06L519.64 542.43L509.88 549.46L499.83 556.14L489.51 562.45L478.92 568.4L468.07 573.96L456.98 579.14L445.64 583.91L434.08 588.28L422.31 592.23L410.33 595.74L398.15 598.82L385.79 601.45L373.25 603.62L360.54 605.33L347.68 606.56L334.68 607.3L321.54 607.54L308.38 607.28L295.36 606.52L282.49 605.27L269.77 603.55L257.22 601.36L244.84 598.71L232.65 595.6L220.66 592.06L208.88 588.09L197.32 583.7L185.98 578.9L174.88 573.7L164.03 568.11L153.44 562.14L143.12 555.79L133.07 549.09L123.32 542.03L113.87 534.63L104.73 526.9L95.9 518.84L87.41 510.47L79.26 501.8L71.46 492.84L64.03 483.59L56.96 474.07L50.28 464.28L43.98 454.24L38.1 443.96L32.62 433.44L27.57 422.69L22.95 411.73L18.77 400.56L15.05 389.2L11.79 377.65L9.01 365.92L6.71 354.03L4.9 341.98L3.6 329.78L2.82 317.45L2.56 304.98L2.84 292.52L3.64 280.18L4.95 267.99L6.77 255.94L9.09 244.05L11.89 232.33L15.16 220.78L18.9 209.42L23.09 198.26L27.73 187.3L32.79 176.56L38.28 166.05L44.19 155.77L50.49 145.74L57.19 135.96L64.27 126.45L71.72 117.21L79.53 108.26L87.69 99.59L96.2 91.24L105.03 83.19L114.18 75.47L123.64 68.08L133.41 61.04L143.46 54.34L153.79 48.01L164.39 42.05L175.25 36.47L186.35 31.29L197.7 26.5L209.27 22.12L221.05 18.17L233.05 14.64L245.24 11.56L257.62 8.92L270.18 6.74L282.9 5.03L295.77 3.8L308.79 3.06L321.95 2.82L322.04 2.82L322.17 2.82ZM187.56 398.89L375.67 398.89L456.34 502.43L456.34 205.77L321.95 107.53L187.56 205.77L187.56 398.89Z" id="bolwJb6Rz"></path></defs><g><g><g><use xlink:href="#bolwJb6Rz" opacity="1" fill="#f05c5f" fill-opacity="1"></use><g><use xlink:href="#bolwJb6Rz" opacity="1" fill-opacity="0" stroke="#000000" stroke-width="1" stroke-opacity="0"></use></g></g></g></g></svg>